<?xml version="1.0" standalone="no"?>
<!DOCTYPE svg PUBLIC "-//W3C//DTD SVG 20010904//EN"
 "http://www.w3.org/TR/2001/REC-SVG-20010904/DTD/svg10.dtd">
<svg version="1.0" xmlns="http://www.w3.org/2000/svg"
 width="271.000000pt" height="256.000000pt" viewBox="0 0 271.000000 256.000000"
 preserveAspectRatio="xMidYMid meet">

<g transform="translate(0.000000,256.000000) scale(0.100000,-0.100000)"
fill="#000000" stroke="none">
<path d="M1470 2399 c-13 -9 -13 -10 0 -6 8 2 23 0 34 -5 14 -8 17 -7 11 3 -6
9 -3 11 8 6 9 -3 18 -3 21 1 7 12 -57 13 -74 1z"/>
<path d="M1428 2373 c-24 -29 -28 -40 -13 -40 8 0 11 5 8 10 -3 6 2 16 12 23
10 8 16 16 13 19 -2 3 -12 -3 -20 -12z"/>
<path d="M1576 2367 c3 -10 9 -15 12 -12 3 3 0 11 -7 18 -10 9 -11 8 -5 -6z"/>
<path d="M1593 2270 c0 -41 2 -58 4 -37 2 20 2 54 0 75 -2 20 -4 3 -4 -38z"/>
<path d="M1391 2288 c2 -28 2 -29 6 -8 3 14 10 28 17 32 7 5 5 8 -6 8 -14 0
-18 -8 -17 -32z"/>
<path d="M1400 2230 c0 -11 4 -20 9 -20 5 0 7 9 4 20 -3 11 -7 20 -9 20 -2 0
-4 -9 -4 -20z"/>
<path d="M1412 2175 c0 -16 2 -22 5 -12 2 9 2 23 0 30 -3 6 -5 -1 -5 -18z"/>
<path d="M1592 2170 c0 -14 2 -19 5 -12 2 6 2 18 0 25 -3 6 -5 1 -5 -13z"/>
<path d="M1549 2148 c-5 -19 -8 -70 -4 -66 7 7 15 68 9 68 -2 0 -4 -1 -5 -2z"/>
<path d="M1370 2103 l-25 -13 28 0 c38 0 41 -1 55 -12 8 -7 12 -7 12 0 0 6 -5
14 -10 17 -6 4 -7 12 -3 18 4 8 1 7 -9 -1 -9 -7 -18 -9 -20 -4 -1 4 -14 2 -28
-5z"/>
<path d="M1315 2081 c-3 -5 0 -13 6 -17 8 -5 9 -3 4 6 -6 10 -4 12 9 7 10 -4
15 -3 11 3 -8 13 -22 13 -30 1z"/>
<path d="M1270 2072 c0 -5 7 -9 15 -9 8 0 15 4 15 9 0 4 -7 8 -15 8 -8 0 -15
-4 -15 -8z"/>
<path d="M727 2061 c-42 -4 -63 -12 -73 -26 -28 -38 7 -66 59 -47 50 18 112
15 217 -12 52 -13 147 -29 210 -36 88 -10 119 -17 131 -31 12 -13 19 -15 28
-6 19 19 13 24 -34 32 -31 4 -43 10 -38 18 5 9 3 9 -8 2 -8 -6 -21 -10 -29 -9
-8 1 -21 2 -28 3 -8 1 -10 6 -6 14 6 9 4 9 -7 1 -8 -6 -23 -9 -34 -7 -11 2
-28 4 -38 4 -11 0 -15 5 -11 12 5 8 3 8 -7 0 -16 -15 -33 -17 -24 -3 3 6 -1 7
-10 4 -11 -5 -14 -2 -9 12 5 18 5 18 -6 2 -6 -10 -15 -18 -20 -18 -5 0 -6 8
-3 18 6 15 5 16 -12 2 -17 -14 -18 -13 -12 4 6 15 5 17 -7 7 -16 -14 -49 -4
-39 13 3 6 3 8 -1 4 -5 -4 -19 -3 -32 2 -13 5 -26 6 -29 0 -3 -5 -18 -5 -34 0
-16 4 -31 7 -33 5 -2 -2 -15 -6 -28 -9 -14 -3 -36 -8 -50 -12 -21 -4 -26 -2
-26 15 0 15 3 17 13 9 10 -8 12 -7 7 5 -6 17 11 18 35 3 10 -6 12 -5 7 2 -5 8
3 11 23 8 17 -2 31 0 31 5 0 5 6 6 14 3 8 -3 38 -6 68 -7 48 -2 53 -4 52 -24
0 -12 4 -19 9 -16 5 3 6 14 4 25 -4 16 -3 17 9 7 8 -6 14 -8 14 -3 0 5 8 0 17
-11 13 -16 15 -17 10 -2 -4 9 -2 17 3 17 6 0 10 -6 10 -12 0 -9 3 -8 10 2 8
13 9 13 14 0 11 -37 16 -43 13 -18 -4 26 -3 27 52 24 31 -1 62 -5 69 -10 8 -5
10 -2 5 11 -6 16 -5 17 12 3 10 -8 16 -10 12 -3 -4 6 -3 13 3 15 5 1 -70 4
-168 6 -97 1 -193 4 -212 6 -19 2 -61 1 -93 -3z"/>
<path d="M1225 2060 c-8 -13 5 -13 25 0 13 8 13 10 -2 10 -9 0 -20 -4 -23 -10z"/>
<path d="M1554 2047 c14 -13 23 -27 19 -30 -3 -4 3 -7 15 -7 13 0 22 -6 22
-15 0 -8 4 -15 9 -15 11 0 43 -89 36 -101 -3 -4 -1 -10 4 -14 6 -3 9 -21 7
-40 -1 -19 1 -35 6 -35 4 0 8 18 8 39 l0 39 43 -10 c23 -5 56 -7 74 -3 22 4
49 -1 83 -16 48 -21 52 -21 68 -5 16 16 16 18 -7 37 -13 10 -29 19 -35 19 -7
0 -55 14 -106 30 -75 24 -105 40 -149 78 -58 50 -91 72 -111 72 -6 0 0 -11 14
-23z m156 -113 c0 -3 -4 -3 -8 0 -4 2 -8 -6 -8 -19 0 -13 4 -21 8 -19 5 3 6 9
3 14 -8 13 65 2 82 -11 23 -20 14 -30 -24 -27 -27 2 -37 7 -35 17 3 12 0 12
-12 2 -23 -20 -38 -9 -51 37 l-13 41 29 -15 c16 -8 29 -17 29 -20z"/>
<path d="M1648 1763 c8 -3 12 -32 12 -94 0 -64 -3 -89 -12 -89 -9 0 -9 -3 -3
-8 6 -4 12 -19 13 -34 1 -20 -3 -28 -16 -29 -15 0 -14 -1 2 -8 11 -4 15 -10
10 -14 -6 -3 -8 -23 -5 -44 l5 -38 7 45 c4 25 8 107 8 183 1 124 -1 137 -16
136 -11 0 -13 -3 -5 -6z"/>
<path d="M1340 1707 c0 -4 7 -24 15 -44 8 -19 15 -55 15 -78 0 -23 -7 -62 -15
-85 -18 -50 -19 -64 -5 -55 6 4 8 10 5 15 -3 5 0 12 7 17 34 21 24 187 -13
228 -5 5 -9 6 -9 2z"/>
<path d="M1330 1405 c0 -14 2 -25 4 -25 2 0 6 11 8 25 3 14 1 25 -3 25 -5 0
-9 -11 -9 -25z"/>
<path d="M1618 1403 c7 -3 16 -2 19 1 4 3 -2 6 -13 5 -11 0 -14 -3 -6 -6z"/>
<path d="M1325 1360 c-3 -5 -1 -10 4 -10 6 0 11 5 11 10 0 6 -2 10 -4 10 -3 0
-8 -4 -11 -10z"/>
<path d="M1544 1300 c0 -13 7 -20 18 -20 19 0 20 20 3 32 -16 12 -21 9 -21
-12z"/>
<path d="M1668 1292 c-4 -12 -2 -20 3 -16 5 3 10 -5 10 -18 1 -14 3 -17 6 -7
2 8 0 26 -5 39 -9 24 -9 24 -14 2z"/>
<path d="M1323 1200 c0 -25 2 -35 4 -22 2 12 2 32 0 45 -2 12 -4 2 -4 -23z"/>
<path d="M1688 1124 c-2 -47 0 -88 5 -91 4 -2 7 37 7 86 0 50 -2 91 -4 91 -3
0 -6 -39 -8 -86z"/>
<path d="M1542 1150 c0 -19 2 -27 5 -17 2 9 2 25 0 35 -3 9 -5 1 -5 -18z"/>
<path d="M1321 1134 c0 -11 3 -14 6 -6 3 7 2 16 -1 19 -3 4 -6 -2 -5 -13z"/>
<path d="M1332 1055 c0 -16 2 -22 5 -12 2 9 2 23 0 30 -3 6 -5 -1 -5 -18z"/>
<path d="M1530 1065 c0 -8 4 -15 10 -15 5 0 7 7 4 15 -4 8 -8 15 -10 15 -2 0
-4 -7 -4 -15z"/>
<path d="M1518 1018 c-3 -18 0 -24 13 -24 14 0 16 3 6 15 -7 8 -10 16 -9 18 2
3 2 7 -1 9 -2 3 -7 -6 -9 -18z"/>
<path d="M1679 985 c-6 -40 -4 -53 7 -43 3 3 4 23 2 44 l-3 39 -6 -40z"/>
<path d="M1340 990 c0 -11 4 -20 8 -20 4 0 8 9 8 20 0 11 -4 20 -8 20 -4 0 -8
-9 -8 -20z"/>
<path d="M1511 964 c0 -11 3 -14 6 -6 3 7 2 16 -1 19 -3 4 -6 -2 -5 -13z"/>
<path d="M1350 931 c0 -11 4 -22 9 -25 4 -3 6 6 3 19 -5 30 -12 33 -12 6z"/>
<path d="M1553 936 c1 -11 9 -21 17 -23 10 -3 11 -2 4 4 -6 4 -14 15 -17 23
-5 11 -6 9 -4 -4z"/>
<path d="M1492 900 c-5 -22 -6 -42 -2 -45 7 -4 22 76 16 83 -2 1 -8 -15 -14
-38z"/>
<path d="M1552 852 c-7 -26 -15 -60 -17 -77 l-5 -30 13 33 c7 18 15 30 19 27
4 -4 4 3 1 16 -4 14 -2 20 4 16 6 -4 9 5 7 25 -6 44 -8 43 -22 -10z"/>
<path d="M1667 846 c-4 -32 -5 -61 -3 -63 7 -7 19 82 14 103 -2 11 -7 -8 -11
-40z"/>
<path d="M1362 860 c0 -19 2 -27 5 -17 2 9 2 25 0 35 -3 9 -5 1 -5 -18z"/>
<path d="M1478 795 c-4 -27 -12 -70 -18 -95 -22 -95 -18 -110 5 -20 14 52 24
111 22 130 -2 31 -3 29 -9 -15z"/>
<path d="M1361 802 c0 -13 -8 -37 -17 -53 -8 -17 -13 -33 -10 -36 8 -9 37 70
33 92 -4 18 -4 17 -6 -3z"/>
<path d="M1650 758 c0 -9 -6 -19 -12 -21 -7 -3 -8 -6 -2 -6 7 -1 8 -18 4 -51
-4 -27 -3 -50 0 -50 9 0 23 130 15 138 -3 3 -5 -2 -5 -10z"/>
<path d="M1524 684 c4 -32 9 -128 12 -213 2 -85 6 -157 10 -160 3 -3 31 -9 62
-13 31 -4 80 -10 107 -13 40 -6 54 -4 64 8 19 23 7 35 -54 53 -75 21 -95 48
-96 133 0 44 -3 59 -8 46 -5 -11 -6 -24 -3 -29 2 -4 -2 -12 -9 -17 -12 -7 -11
-9 1 -9 11 -1 10 -4 -5 -17 -16 -12 -16 -14 -3 -10 14 5 17 1 14 -23 -2 -22 1
-30 12 -30 12 0 12 -3 2 -15 -11 -13 -10 -14 4 -9 11 4 16 1 16 -10 0 -8 6
-13 13 -11 19 7 38 -10 31 -28 -8 -23 -25 -22 -18 1 5 14 4 15 -5 2 -10 -13
-12 -13 -21 0 -6 10 -10 11 -10 3 0 -7 -9 -13 -20 -13 -11 0 -20 6 -20 13 0 8
-3 8 -8 2 -4 -6 -14 -11 -22 -10 -12 0 -15 15 -15 77 0 63 3 78 15 78 13 0 13
2 1 9 -17 11 -20 23 -24 102 -2 30 -7 60 -11 67 -4 7 -2 12 6 12 10 0 10 2 1
8 -6 4 -10 20 -9 35 2 15 -1 30 -7 34 -6 4 -7 -15 -3 -53z m226 -384 c0 -3
-11 -6 -25 -6 -23 0 -33 15 -19 29 6 6 44 -14 44 -23z"/>
<path d="M1315 664 c-9 -50 -1 -52 12 -4 5 22 7 40 3 40 -4 0 -11 -16 -15 -36z"/>
<path d="M1629 618 c-5 -16 -2 -68 4 -68 4 0 7 16 7 35 0 19 -2 35 -5 35 -3 0
-5 -1 -6 -2z"/>
<path d="M1300 515 c0 -30 3 -55 8 -55 4 0 7 25 7 55 0 30 -3 55 -7 55 -5 0
-8 -25 -8 -55z"/>
<path d="M1407 493 c-9 -32 -19 -75 -23 -95 -3 -21 -11 -38 -18 -38 -6 0 -6
-4 3 -9 9 -6 10 -11 3 -15 -6 -4 -9 -13 -6 -21 4 -9 -4 -15 -23 -18 -28 -4
-27 -4 4 -6 31 -1 32 1 38 47 4 26 16 82 26 126 23 91 19 114 -4 29z"/>
<path d="M1297 318 c-3 -73 -3 -136 0 -141 12 -19 130 -67 164 -67 37 0 66 21
54 40 -3 5 -21 17 -38 26 -42 22 -77 54 -88 81 -6 17 -13 21 -26 16 -17 -7
-17 -8 0 -11 11 -2 16 -9 13 -18 -3 -8 1 -14 10 -14 11 0 14 -5 10 -17 -4 -10
-4 -14 0 -10 9 9 35 -13 28 -24 -3 -5 1 -6 9 -3 21 8 29 -10 17 -38 -10 -22
-10 -22 -7 4 2 15 0 25 -4 22 -5 -3 -9 -14 -9 -25 0 -18 -2 -18 -32 -6 -21 9
-32 20 -31 32 1 12 -2 14 -9 7 -7 -7 -18 -7 -34 0 -22 10 -23 15 -18 72 9 104
11 196 4 201 -4 2 -10 -55 -13 -127z m179 -185 c-10 -10 -19 5 -10 18 6 11 8
11 12 0 2 -7 1 -15 -2 -18z"/>
</g>
</svg>
